<?xml version="1.0" encoding="UTF-8"?>
<!DOCTYPE svg PUBLIC "-//W3C//DTD SVG 1.1//EN" "http://www.w3.org/Graphics/SVG/1.1/DTD/svg11.dtd">
<svg xmlns="http://www.w3.org/2000/svg" version="1.1" width="753px" height="753px" style="shape-rendering:geometricPrecision; text-rendering:geometricPrecision; image-rendering:optimizeQuality; fill-rule:evenodd; clip-rule:evenodd" xmlns:xlink="http://www.w3.org/1999/xlink">
<g><path style="opacity:0.999" fill="#3599c0" d="M 354.5,-0.5 C 369.167,-0.5 383.833,-0.5 398.5,-0.5C 520.424,10.0261 616.924,64.6928 688,163.5C 724.477,217.765 745.977,277.431 752.5,342.5C 752.5,365.167 752.5,387.833 752.5,410.5C 739.471,525.575 686.471,617.075 593.5,685C 538.341,723.242 477.341,745.742 410.5,752.5C 387.833,752.5 365.167,752.5 342.5,752.5C 212.182,736.799 113.682,672.799 47,560.5C 19.091,509.95 3.25771,455.95 -0.5,398.5C -0.5,383.5 -0.5,368.5 -0.5,353.5C 9.14578,240.696 57.8125,148.862 145.5,78C 207.233,31.0293 276.899,4.86261 354.5,-0.5 Z"/></g>
<g><path style="opacity:1" fill="#fcfdfd" d="M 353.5,36.5 C 444.965,32.7111 525.965,59.5444 596.5,117C 694.985,206.45 732.485,316.95 709,448.5C 686.147,544.767 632.647,618.6 548.5,670C 468.311,714.979 383.311,727.313 293.5,707C 178.374,674.205 99.2076,602.038 56,490.5C 19.6754,379.137 34.3421,275.137 100,178.5C 163.429,94.1871 247.929,46.8537 353.5,36.5 Z"/></g>
<g><path style="opacity:1" fill="#3599c0" d="M 347.5,60.5 C 467.382,54.0392 563.216,98.3725 635,193.5C 698.049,287.234 710.049,387.234 671,493.5C 622.077,605.404 537.243,671.238 416.5,691C 301.944,702.28 207.111,664.78 132,578.5C 64.561,491.923 44.561,395.256 72,288.5C 102.7,190.8 165.2,121.967 259.5,82C 288.044,71.0299 317.377,63.8633 347.5,60.5 Z"/></g>
<g><path style="opacity:1" fill="#fdfdfd" d="M 308.5,212.5 C 334.138,210.732 358.138,216.565 380.5,230C 418.337,252.863 441.837,286.03 451,329.5C 452.926,344.432 453.926,359.432 454,374.5C 460.05,368.063 463.717,360.396 465,351.5C 465.327,341.435 465.493,331.435 465.5,321.5C 493.688,357.352 499.855,396.685 484,439.5C 466.665,472.093 439.832,491.927 403.5,499C 401.19,499.497 398.857,499.663 396.5,499.5C 400.294,488.501 402.627,477.168 403.5,465.5C 402.199,458.165 400.699,450.832 399,443.5C 392,430.158 384,417.491 375,405.5C 370.604,397.313 367.604,388.646 366,379.5C 365.632,378.09 364.799,377.09 363.5,376.5C 351.089,389.801 346.589,405.468 350,423.5C 351.141,436.616 356.308,447.782 365.5,457C 367.376,458.375 369.376,459.542 371.5,460.5C 368.428,462.272 365.095,463.439 361.5,464C 347.458,467.286 335.291,464.12 325,454.5C 323.956,455.623 323.29,456.956 323,458.5C 321.457,469.981 323.79,480.647 330,490.5C 331.62,492.241 333.12,494.075 334.5,496C 360.6,501.568 386.933,502.901 413.5,500C 430.58,497.417 447.58,494.417 464.5,491C 483.52,490.443 502.52,490.443 521.5,491C 504.287,482.75 498.454,469.583 504,451.5C 508.395,445.434 512.395,439.1 516,432.5C 517.385,427.239 518.385,421.906 519,416.5C 524.297,419.294 527.464,423.628 528.5,429.5C 533.268,416.638 529.935,406.471 518.5,399C 541.732,400.207 556.899,412.041 564,434.5C 564.966,440.13 565.633,445.796 566,451.5C 568.776,446.58 570.109,441.247 570,435.5C 583.584,455.838 580.751,473.338 561.5,488C 556.805,491.046 551.805,492.213 546.5,491.5C 548.99,485.597 549.157,479.597 547,473.5C 542.448,466.952 538.782,459.952 536,452.5C 532.543,455.75 531.043,459.75 531.5,464.5C 531.001,470.701 533.001,475.868 537.5,480C 532.511,482.293 527.844,481.793 523.5,478.5C 521.696,484.59 523.363,489.423 528.5,493C 541.14,495.461 553.807,497.795 566.5,500C 576.793,501.266 587.126,501.766 597.5,501.5C 597.5,514.5 597.5,527.5 597.5,540.5C 589.16,540.666 580.827,540.5 572.5,540C 555.349,537.753 538.349,534.753 521.5,531C 503.857,529.529 486.19,529.196 468.5,530C 447.551,533.724 426.551,537.057 405.5,540C 390.833,540.667 376.167,540.667 361.5,540C 344.124,537.207 326.791,534.207 309.5,531C 289.5,529 269.5,529 249.5,531C 231.961,534.802 214.295,537.802 196.5,540C 188.5,540.667 180.5,540.667 172.5,540C 166.135,527.107 160.469,513.94 155.5,500.5C 171.833,501.839 188.166,501.672 204.5,500C 221.812,496.871 239.145,493.871 256.5,491C 276.56,490.186 296.56,490.519 316.5,492C 293.638,480.137 276.471,462.637 265,439.5C 261.336,430.359 259.503,420.859 259.5,411C 259.705,392.617 264.205,375.45 273,359.5C 279.667,351.5 286.333,343.5 293,335.5C 306.066,314.448 312.066,291.448 311,266.5C 329.129,274.992 339.129,289.325 341,309.5C 355.662,274.654 348.829,244.821 320.5,220C 316.615,217.275 312.615,214.775 308.5,212.5 Z"/></g>
<g><path style="opacity:1" fill="#fbfcfd" d="M 193.5,399.5 C 218.509,399.969 234.009,412.636 240,437.5C 240.333,442.167 240.667,446.833 241,451.5C 242.252,449.999 243.252,448.332 244,446.5C 244.333,442.833 244.667,439.167 245,435.5C 254.263,447.48 255.929,460.48 250,474.5C 243.647,485.588 234.147,491.421 221.5,492C 225.573,480.793 223.407,470.959 215,462.5C 213.661,459.119 212.328,455.786 211,452.5C 206.176,458.83 205.176,465.83 208,473.5C 209.261,476.211 211.094,478.378 213.5,480C 208.251,482.275 203.251,481.775 198.5,478.5C 197.208,483.306 198.208,487.639 201.5,491.5C 191.096,489.641 183.596,483.641 179,473.5C 176.519,464.521 177.185,455.854 181,447.5C 189.848,439.131 194.348,428.797 194.5,416.5C 199.338,419.52 202.505,423.853 204,429.5C 208.724,416.5 205.224,406.5 193.5,399.5 Z"/></g>
</svg>
